solid "OUTLET2"
 facet normal -0.169746 0.0214974 0.985253
  outer loop
   vertex -5.79125 180.975 -56.1966
   vertex -6.24086 180.173 -56.2566
   vertex -5.34987 180.42 -56.1084
  endloop
 endfacet
 facet normal -0.169755 0.0215047 0.985252
  outer loop
   vertex -6.44778 183.448 -56.3637
   vertex -6.11045 183.69 -56.3108
   vertex -6.29474 183.697 -56.3427
  endloop
 endfacet
 facet normal -0.169745 0.0214956 0.985254
  outer loop
   vertex -7.02772 179.584 -56.3793
   vertex -6.33345 179.347 -56.2545
   vertex -6.24086 180.173 -56.2566
  endloop
 endfacet
 facet normal -0.169748 0.0215007 0.985253
  outer loop
   vertex -5.941 182.474 -56.2551
   vertex -5.07727 182.961 -56.1169
   vertex -5.80956 183.274 -56.2499
  endloop
 endfacet
 facet normal -0.169749 0.0214963 0.985253
  outer loop
   vertex -4.54777 182.295 -56.0112
   vertex -5.07727 182.961 -56.1169
   vertex -5.35015 182.148 -56.1462
  endloop
 endfacet
 facet normal -0.169745 0.0214952 0.985253
  outer loop
   vertex -5.35015 182.148 -56.1462
   vertex -5.07727 182.961 -56.1169
   vertex -5.941 182.474 -56.2551
  endloop
 endfacet
 facet normal -0.169746 0.0214945 0.985253
  outer loop
   vertex -5.35015 182.148 -56.1462
   vertex -5.941 182.474 -56.2551
   vertex -5.92767 181.675 -56.2354
  endloop
 endfacet
 facet normal -0.169744 0.0214946 0.985254
  outer loop
   vertex -5.92767 181.675 -56.2354
   vertex -5.941 182.474 -56.2551
   vertex -6.67293 181.876 -56.3682
  endloop
 endfacet
 facet normal -0.169742 0.0214975 0.985254
  outer loop
   vertex -4.51153 180.58 -55.9675
   vertex -5.34987 180.42 -56.1084
   vertex -4.9334 179.872 -56.0247
  endloop
 endfacet
 facet normal -0.169741 0.0215084 0.985254
  outer loop
   vertex -6.17499 179.101 -56.2218
   vertex -5.99782 179.114 -56.1916
   vertex -6.33345 179.347 -56.2545
  endloop
 endfacet
 facet normal -0.169742 0.0214968 0.985254
  outer loop
   vertex -7.37493 181.383 -56.4783
   vertex -8.11198 180.916 -56.5951
   vertex -7.2544 180.439 -56.437
  endloop
 endfacet
 facet normal -0.169746 0.0214957 0.985253
  outer loop
   vertex -6.33345 179.347 -56.2545
   vertex -5.57852 179.487 -56.1275
   vertex -6.24086 180.173 -56.2566
  endloop
 endfacet
 facet normal -0.169746 0.0215012 0.985253
  outer loop
   vertex -6.58327 181.088 -56.3355
   vertex -5.79125 180.975 -56.1966
   vertex -5.92767 181.675 -56.2354
  endloop
 endfacet
 facet normal -0.169747 0.0214977 0.985253
  outer loop
   vertex -6.58327 181.088 -56.3355
   vertex -6.24086 180.173 -56.2566
   vertex -5.79125 180.975 -56.1966
  endloop
 endfacet
 facet normal -0.169747 0.0214951 0.985253
  outer loop
   vertex -7.44755 182.199 -56.5087
   vertex -7.37493 181.383 -56.4783
   vertex -6.67293 181.876 -56.3682
  endloop
 endfacet
 facet normal -0.169755 0.0214975 0.985252
  outer loop
   vertex -4.51153 180.58 -55.9675
   vertex -4.03434 180.945 -55.8933
   vertex -4.28352 181.446 -55.9471
  endloop
 endfacet
 facet normal -0.169748 0.0214992 0.985253
  outer loop
   vertex -6.67293 181.876 -56.3682
   vertex -5.941 182.474 -56.2551
   vertex -6.7165 182.513 -56.3896
  endloop
 endfacet
 facet normal -0.169746 0.0214973 0.985253
  outer loop
   vertex -6.7165 182.513 -56.3896
   vertex -6.40957 182.952 -56.3463
   vertex -7.17659 183.089 -56.4814
  endloop
 endfacet
 facet normal -0.169748 0.0214984 0.985253
  outer loop
   vertex -6.7165 182.513 -56.3896
   vertex -5.941 182.474 -56.2551
   vertex -6.40957 182.952 -56.3463
  endloop
 endfacet
 facet normal -0.169745 0.0214981 0.985254
  outer loop
   vertex -5.80956 183.274 -56.2499
   vertex -6.44778 183.448 -56.3637
   vertex -6.40957 182.952 -56.3463
  endloop
 endfacet
 facet normal -0.169746 0.021498 0.985253
  outer loop
   vertex -6.40957 182.952 -56.3463
   vertex -6.44778 183.448 -56.3637
   vertex -7.17659 183.089 -56.4814
  endloop
 endfacet
 facet normal -0.169745 0.0214984 0.985254
  outer loop
   vertex -7.44755 182.199 -56.5087
   vertex -6.7165 182.513 -56.3896
   vertex -7.17659 183.089 -56.4814
  endloop
 endfacet
 facet normal -0.169747 0.0214954 0.985253
  outer loop
   vertex -4.28352 181.446 -55.9471
   vertex -5.13043 181.334 -56.0906
   vertex -4.51153 180.58 -55.9675
  endloop
 endfacet
 facet normal -0.169743 0.021499 0.985254
  outer loop
   vertex -4.51153 180.58 -55.9675
   vertex -5.13043 181.334 -56.0906
   vertex -5.34987 180.42 -56.1084
  endloop
 endfacet
 facet normal -0.169747 0.0214948 0.985253
  outer loop
   vertex -4.28352 181.446 -55.9471
   vertex -4.54777 182.295 -56.0112
   vertex -5.13043 181.334 -56.0906
  endloop
 endfacet
 facet normal -0.169748 0.0214971 0.985253
  outer loop
   vertex -7.37493 181.383 -56.4783
   vertex -6.58327 181.088 -56.3355
   vertex -6.67293 181.876 -56.3682
  endloop
 endfacet
 facet normal -0.169752 0.0214947 0.985252
  outer loop
   vertex -8.11198 180.916 -56.5951
   vertex -8.34081 180.497 -56.6254
   vertex -8.0033 180.325 -56.5635
  endloop
 endfacet
 facet normal -0.169757 0.0214799 0.985252
  outer loop
   vertex -4.28352 181.446 -55.9471
   vertex -4.00673 181.141 -55.8928
   vertex -3.99258 181.339 -55.8947
  endloop
 endfacet
 facet normal -0.16974 0.0214798 0.985255
  outer loop
   vertex -8.47355 181.835 -56.6775
   vertex -8.50613 181.639 -56.6788
   vertex -8.17528 181.671 -56.6225
  endloop
 endfacet
 facet normal -0.169745 0.0214952 0.985254
  outer loop
   vertex -8.04329 179.982 -56.5629
   vertex -8.0033 180.325 -56.5635
   vertex -8.15574 180.138 -56.5857
  endloop
 endfacet
 facet normal -0.169745 0.021484 0.985254
  outer loop
   vertex -4.08104 180.756 -55.8972
   vertex -4.03434 180.945 -55.8933
   vertex -4.51153 180.58 -55.9675
  endloop
 endfacet
 facet normal -0.169744 0.0215013 0.985254
  outer loop
   vertex -7.02772 179.584 -56.3793
   vertex -7.2544 180.439 -56.437
   vertex -7.62071 179.839 -56.487
  endloop
 endfacet
 facet normal -0.169742 0.0214967 0.985254
  outer loop
   vertex -7.2544 180.439 -56.437
   vertex -8.11198 180.916 -56.5951
   vertex -8.0033 180.325 -56.5635
  endloop
 endfacet
 facet normal -0.169749 0.0214965 0.985253
  outer loop
   vertex -7.2544 180.439 -56.437
   vertex -6.24086 180.173 -56.2566
   vertex -6.58327 181.088 -56.3355
  endloop
 endfacet
 facet normal -0.169745 0.0214955 0.985254
  outer loop
   vertex -4.9334 179.872 -56.0247
   vertex -5.34987 180.42 -56.1084
   vertex -5.57852 179.487 -56.1275
  endloop
 endfacet
 facet normal -0.169746 0.0214957 0.985253
  outer loop
   vertex -5.34987 180.42 -56.1084
   vertex -6.24086 180.173 -56.2566
   vertex -5.57852 179.487 -56.1275
  endloop
 endfacet
 facet normal -0.169753 0.0215037 0.985252
  outer loop
   vertex -4.9334 179.872 -56.0247
   vertex -4.45074 180.016 -55.9447
   vertex -4.51153 180.58 -55.9675
  endloop
 endfacet
 facet normal -0.169755 0.0214965 0.985252
  outer loop
   vertex -4.33169 180.184 -55.9279
   vertex -4.23627 180.359 -55.9153
   vertex -4.51153 180.58 -55.9675
  endloop
 endfacet
 facet normal -0.169745 0.0214994 0.985253
  outer loop
   vertex -7.44755 182.199 -56.5087
   vertex -6.67293 181.876 -56.3682
   vertex -6.7165 182.513 -56.3896
  endloop
 endfacet
 facet normal -0.169746 0.0215003 0.985253
  outer loop
   vertex -5.941 182.474 -56.2551
   vertex -5.80956 183.274 -56.2499
   vertex -6.40957 182.952 -56.3463
  endloop
 endfacet
 facet normal -0.169753 0.0214917 0.985252
  outer loop
   vertex -8.11834 182.257 -56.6255
   vertex -7.44755 182.199 -56.5087
   vertex -7.83785 182.717 -56.5872
  endloop
 endfacet
 facet normal -0.169751 0.0215052 0.985252
  outer loop
   vertex -3.99204 181.517 -55.8985
   vertex -4.00944 181.709 -55.9056
   vertex -4.28352 181.446 -55.9471
  endloop
 endfacet
 facet normal -0.16974 0.0214761 0.985255
  outer loop
   vertex -8.50613 181.639 -56.6788
   vertex -8.51882 181.449 -56.6769
   vertex -8.17528 181.671 -56.6225
  endloop
 endfacet
 facet normal -0.169748 0.0214958 0.985253
  outer loop
   vertex -4.54777 182.295 -56.0112
   vertex -5.35015 182.148 -56.1462
   vertex -5.13043 181.334 -56.0906
  endloop
 endfacet
 facet normal -0.169744 0.0214888 0.985254
  outer loop
   vertex -8.29342 182.386 -56.6585
   vertex -8.37031 182.21 -56.6679
   vertex -8.11834 182.257 -56.6255
  endloop
 endfacet
 facet normal -0.169749 0.0214881 0.985253
  outer loop
   vertex -8.49552 181.063 -56.6644
   vertex -8.46214 180.866 -56.6544
   vertex -8.11198 180.916 -56.5951
  endloop
 endfacet
 facet normal -0.169739 0.0215151 0.985254
  outer loop
   vertex -8.51421 181.265 -56.6721
   vertex -8.49552 181.063 -56.6644
   vertex -8.11198 180.916 -56.5951
  endloop
 endfacet
 facet normal -0.169737 0.0214979 0.985255
  outer loop
   vertex -4.28352 181.446 -55.9471
   vertex -4.04278 181.89 -55.9153
   vertex -4.54777 182.295 -56.0112
  endloop
 endfacet
 facet normal -0.169738 0.0214864 0.985255
  outer loop
   vertex -4.54777 182.295 -56.0112
   vertex -4.1493 182.252 -55.9416
   vertex -4.22507 182.422 -55.9583
  endloop
 endfacet
 facet normal -0.169749 0.0214924 0.985253
  outer loop
   vertex -8.46214 180.866 -56.6544
   vertex -8.4078 180.679 -56.6409
   vertex -8.11198 180.916 -56.5951
  endloop
 endfacet
 facet normal -0.169745 0.0214953 0.985254
  outer loop
   vertex -7.44755 182.199 -56.5087
   vertex -8.17528 181.671 -56.6225
   vertex -7.37493 181.383 -56.4783
  endloop
 endfacet
 facet normal -0.169745 0.021504 0.985253
  outer loop
   vertex -8.42794 182.031 -56.6739
   vertex -8.17528 181.671 -56.6225
   vertex -8.11834 182.257 -56.6255
  endloop
 endfacet
 facet normal -0.169748 0.0214837 0.985253
  outer loop
   vertex -4.54777 182.295 -56.0112
   vertex -4.04278 181.89 -55.9153
   vertex -4.08641 182.065 -55.9267
  endloop
 endfacet
 facet normal -0.169745 0.0214983 0.985254
  outer loop
   vertex -7.44755 182.199 -56.5087
   vertex -7.17659 183.089 -56.4814
   vertex -7.83785 182.717 -56.5872
  endloop
 endfacet
 facet normal -0.169742 0.0214958 0.985254
  outer loop
   vertex -4.31753 182.59 -55.9779
   vertex -4.54777 182.295 -56.0112
   vertex -4.22507 182.422 -55.9583
  endloop
 endfacet
 facet normal -0.169752 0.0214989 0.985252
  outer loop
   vertex -8.17528 181.671 -56.6225
   vertex -8.51421 181.265 -56.6721
   vertex -8.11198 180.916 -56.5951
  endloop
 endfacet
 facet normal -0.16975 0.0214933 0.985253
  outer loop
   vertex -8.11198 180.916 -56.5951
   vertex -8.4078 180.679 -56.6409
   vertex -8.34081 180.497 -56.6254
  endloop
 endfacet
 facet normal -0.169743 0.0214978 0.985254
  outer loop
   vertex -6.67293 181.876 -56.3682
   vertex -6.58327 181.088 -56.3355
   vertex -5.92767 181.675 -56.2354
  endloop
 endfacet
 facet normal -0.16974 0.0214928 0.985255
  outer loop
   vertex -5.99782 179.114 -56.1916
   vertex -5.81086 179.146 -56.1601
   vertex -5.57852 179.487 -56.1275
  endloop
 endfacet
 facet normal -0.169747 0.0214964 0.985253
  outer loop
   vertex -8.15574 180.138 -56.5857
   vertex -8.0033 180.325 -56.5635
   vertex -8.25196 180.304 -56.6059
  endloop
 endfacet
 facet normal -0.169736 0.0215056 0.985255
  outer loop
   vertex -4.51153 180.58 -55.9675
   vertex -4.45074 180.016 -55.9447
   vertex -4.33169 180.184 -55.9279
  endloop
 endfacet
 facet normal -0.16975 0.0215 0.985253
  outer loop
   vertex -3.99258 181.339 -55.8947
   vertex -3.99204 181.517 -55.8985
   vertex -4.28352 181.446 -55.9471
  endloop
 endfacet
 facet normal -0.169744 0.0214993 0.985254
  outer loop
   vertex -5.79125 180.975 -56.1966
   vertex -5.34987 180.42 -56.1084
   vertex -5.13043 181.334 -56.0906
  endloop
 endfacet
 facet normal -0.169718 0.0214954 0.985258
  outer loop
   vertex -4.53434 182.897 -56.022
   vertex -4.54777 182.295 -56.0112
   vertex -4.41322 182.742 -55.9977
  endloop
 endfacet
 facet normal -0.169756 0.0215138 0.985251
  outer loop
   vertex -4.15002 180.561 -55.9048
   vertex -4.08104 180.756 -55.8972
   vertex -4.51153 180.58 -55.9675
  endloop
 endfacet
 facet normal -0.169752 0.0215062 0.985252
  outer loop
   vertex -4.00944 181.709 -55.9056
   vertex -4.04278 181.89 -55.9153
   vertex -4.28352 181.446 -55.9471
  endloop
 endfacet
 facet normal -0.169726 0.0215029 0.985257
  outer loop
   vertex -4.87495 179.579 -56.0083
   vertex -4.73063 179.702 -55.9861
   vertex -4.9334 179.872 -56.0247
  endloop
 endfacet
 facet normal -0.169747 0.0214989 0.985253
  outer loop
   vertex -4.9334 179.872 -56.0247
   vertex -5.57852 179.487 -56.1275
   vertex -5.02024 179.478 -56.0311
  endloop
 endfacet
 facet normal -0.169766 0.0215113 0.98525
  outer loop
   vertex -5.57852 179.487 -56.1275
   vertex -5.81086 179.146 -56.1601
   vertex -5.6401 179.19 -56.1316
  endloop
 endfacet
 facet normal -0.169745 0.0214932 0.985254
  outer loop
   vertex -6.33345 179.347 -56.2545
   vertex -6.54776 179.117 -56.2864
   vertex -6.35288 179.102 -56.2525
  endloop
 endfacet
 facet normal -0.169743 0.0215026 0.985254
  outer loop
   vertex -6.33345 179.347 -56.2545
   vertex -7.02772 179.584 -56.3793
   vertex -6.73288 179.149 -56.319
  endloop
 endfacet
 facet normal -0.169759 0.0214999 0.985251
  outer loop
   vertex -7.02772 179.584 -56.3793
   vertex -7.09799 179.26 -56.3843
   vertex -6.9127 179.197 -56.351
  endloop
 endfacet
 facet normal -0.169737 0.0215065 0.985255
  outer loop
   vertex -7.02772 179.584 -56.3793
   vertex -6.9127 179.197 -56.351
   vertex -6.73288 179.149 -56.319
  endloop
 endfacet
 facet normal -0.169754 0.0214988 0.985252
  outer loop
   vertex -7.02772 179.584 -56.3793
   vertex -7.28042 179.344 -56.4176
   vertex -7.09799 179.26 -56.3843
  endloop
 endfacet
 facet normal -0.169762 0.0214945 0.985251
  outer loop
   vertex -6.17499 179.101 -56.2218
   vertex -6.33345 179.347 -56.2545
   vertex -6.35288 179.102 -56.2525
  endloop
 endfacet
 facet normal -0.169739 0.0214833 0.985255
  outer loop
   vertex -7.28042 179.344 -56.4176
   vertex -7.02772 179.584 -56.3793
   vertex -7.45549 179.446 -56.45
  endloop
 endfacet
 facet normal -0.169776 0.0214866 0.985248
  outer loop
   vertex -7.6285 179.565 -56.4824
   vertex -7.45549 179.446 -56.45
   vertex -7.62071 179.839 -56.487
  endloop
 endfacet
 facet normal -0.169744 0.0214754 0.985254
  outer loop
   vertex -4.9334 179.872 -56.0247
   vertex -4.58774 179.849 -55.9647
   vertex -4.45074 180.016 -55.9447
  endloop
 endfacet
 facet normal -0.169745 0.0214956 0.985254
  outer loop
   vertex -7.77955 179.69 -56.5111
   vertex -7.62071 179.839 -56.487
   vertex -7.91974 179.834 -56.5384
  endloop
 endfacet
 facet normal -0.169747 0.0215048 0.985253
  outer loop
   vertex -8.25196 180.304 -56.6059
   vertex -8.0033 180.325 -56.5635
   vertex -8.34081 180.497 -56.6254
  endloop
 endfacet
 facet normal -0.169745 0.0215051 0.985253
  outer loop
   vertex -7.91974 179.834 -56.5384
   vertex -7.62071 179.839 -56.487
   vertex -8.04329 179.982 -56.5629
  endloop
 endfacet
 facet normal -0.169757 0.0214939 0.985251
  outer loop
   vertex -4.23627 180.359 -55.9153
   vertex -4.15002 180.561 -55.9048
   vertex -4.51153 180.58 -55.9675
  endloop
 endfacet
 facet normal -0.169743 0.0215002 0.985254
  outer loop
   vertex -7.62071 179.839 -56.487
   vertex -7.2544 180.439 -56.437
   vertex -8.0033 180.325 -56.5635
  endloop
 endfacet
 facet normal -0.169719 0.0215158 0.985258
  outer loop
   vertex -4.03434 180.945 -55.8933
   vertex -4.00673 181.141 -55.8928
   vertex -4.28352 181.446 -55.9471
  endloop
 endfacet
 facet normal -0.169748 0.0215001 0.985253
  outer loop
   vertex -6.24086 180.173 -56.2566
   vertex -7.2544 180.439 -56.437
   vertex -7.02772 179.584 -56.3793
  endloop
 endfacet
 facet normal -0.169752 0.0215047 0.985252
  outer loop
   vertex -8.17528 181.671 -56.6225
   vertex -7.44755 182.199 -56.5087
   vertex -8.11834 182.257 -56.6255
  endloop
 endfacet
 facet normal -0.169715 0.0215254 0.985258
  outer loop
   vertex -8.42794 182.031 -56.6739
   vertex -8.47355 181.835 -56.6775
   vertex -8.17528 181.671 -56.6225
  endloop
 endfacet
 facet normal -0.169745 0.0215286 0.985253
  outer loop
   vertex -4.68534 183.055 -56.0514
   vertex -5.07727 182.961 -56.1169
   vertex -4.53434 182.897 -56.022
  endloop
 endfacet
 facet normal -0.169734 0.0214823 0.985256
  outer loop
   vertex -4.83325 183.19 -56.0799
   vertex -5.07727 182.961 -56.1169
   vertex -4.68534 183.055 -56.0514
  endloop
 endfacet
 facet normal -0.169754 0.0214939 0.985252
  outer loop
   vertex -7.7112 183.149 -56.5748
   vertex -7.17659 183.089 -56.4814
   vertex -7.56655 183.265 -56.5524
  endloop
 endfacet
 facet normal -0.169751 0.0215003 0.985252
  outer loop
   vertex -4.99779 183.314 -56.1109
   vertex -5.07727 182.961 -56.1169
   vertex -4.83325 183.19 -56.0799
  endloop
 endfacet
 facet normal -0.169721 0.0215052 0.985257
  outer loop
   vertex -7.85364 183.014 -56.5964
   vertex -7.9878 182.87 -56.6164
   vertex -7.83785 182.717 -56.5872
  endloop
 endfacet
 facet normal -0.169744 0.021486 0.985254
  outer loop
   vertex -7.83785 182.717 -56.5872
   vertex -8.19982 182.56 -56.6462
   vertex -8.11834 182.257 -56.6255
  endloop
 endfacet
 facet normal -0.169743 0.0214898 0.985254
  outer loop
   vertex -6.49335 183.679 -56.3766
   vertex -6.69154 183.646 -56.41
   vertex -6.44778 183.448 -56.3637
  endloop
 endfacet
 facet normal -0.169744 0.0214871 0.985254
  outer loop
   vertex -7.83785 182.717 -56.5872
   vertex -8.09524 182.728 -56.6318
   vertex -8.19982 182.56 -56.6462
  endloop
 endfacet
 facet normal -0.169728 0.0215049 0.985256
  outer loop
   vertex -7.7112 183.149 -56.5748
   vertex -7.85364 183.014 -56.5964
   vertex -7.83785 182.717 -56.5872
  endloop
 endfacet
 facet normal -0.169746 0.0214918 0.985253
  outer loop
   vertex -6.11045 183.69 -56.3108
   vertex -6.44778 183.448 -56.3637
   vertex -5.80956 183.274 -56.2499
  endloop
 endfacet
 facet normal -0.169742 0.0214983 0.985254
  outer loop
   vertex -5.07727 182.961 -56.1169
   vertex -4.99779 183.314 -56.1109
   vertex -5.16195 183.412 -56.1413
  endloop
 endfacet
 facet normal -0.16975 0.0214977 0.985253
  outer loop
   vertex -5.32 183.489 -56.1703
   vertex -5.80956 183.274 -56.2499
   vertex -5.07727 182.961 -56.1169
  endloop
 endfacet
 facet normal -0.169761 0.0214789 0.985251
  outer loop
   vertex -7.40162 183.372 -56.5263
   vertex -7.56655 183.265 -56.5524
   vertex -7.17659 183.089 -56.4814
  endloop
 endfacet
 facet normal -0.169728 0.021506 0.985256
  outer loop
   vertex -7.22532 183.465 -56.498
   vertex -7.40162 183.372 -56.5263
   vertex -7.17659 183.089 -56.4814
  endloop
 endfacet
 facet normal -0.169754 0.0214858 0.985252
  outer loop
   vertex -6.11045 183.69 -56.3108
   vertex -5.80956 183.274 -56.2499
   vertex -5.90928 183.666 -56.2756
  endloop
 endfacet
 facet normal -0.169744 0.0214928 0.985254
  outer loop
   vertex -7.17659 183.089 -56.4814
   vertex -6.44778 183.448 -56.3637
   vertex -6.87179 183.605 -56.4402
  endloop
 endfacet
 facet normal -0.169725 0.0214937 0.985257
  outer loop
   vertex -5.80956 183.274 -56.2499
   vertex -5.69424 183.625 -56.2377
   vertex -5.90928 183.666 -56.2756
  endloop
 endfacet
 facet normal -0.169749 0.0214959 0.985253
  outer loop
   vertex -6.58327 181.088 -56.3355
   vertex -7.37493 181.383 -56.4783
   vertex -7.2544 180.439 -56.437
  endloop
 endfacet
 facet normal -0.169756 0.0215018 0.985252
  outer loop
   vertex -8.51882 181.449 -56.6769
   vertex -8.51421 181.265 -56.6721
   vertex -8.17528 181.671 -56.6225
  endloop
 endfacet
 facet normal -0.169744 0.0214996 0.985254
  outer loop
   vertex -8.17528 181.671 -56.6225
   vertex -8.11198 180.916 -56.5951
   vertex -7.37493 181.383 -56.4783
  endloop
 endfacet
 facet normal -0.169744 0.0214809 0.985254
  outer loop
   vertex -4.73063 179.702 -55.9861
   vertex -4.58774 179.849 -55.9647
   vertex -4.9334 179.872 -56.0247
  endloop
 endfacet
 facet normal -0.169746 0.0214987 0.985253
  outer loop
   vertex -5.02024 179.478 -56.0311
   vertex -4.87495 179.579 -56.0083
   vertex -4.9334 179.872 -56.0247
  endloop
 endfacet
 facet normal -0.169747 0.0214868 0.985253
  outer loop
   vertex -5.57852 179.487 -56.1275
   vertex -5.17181 179.383 -56.0551
   vertex -5.02024 179.478 -56.0311
  endloop
 endfacet
 facet normal -0.169735 0.0215359 0.985254
  outer loop
   vertex -5.57852 179.487 -56.1275
   vertex -5.32112 179.305 -56.0792
   vertex -5.17181 179.383 -56.0551
  endloop
 endfacet
 facet normal -0.169753 0.0215094 0.985252
  outer loop
   vertex -5.57852 179.487 -56.1275
   vertex -5.47011 179.244 -56.1035
   vertex -5.32112 179.305 -56.0792
  endloop
 endfacet
 facet normal -0.169754 0.0215088 0.985252
  outer loop
   vertex -5.6401 179.19 -56.1316
   vertex -5.47011 179.244 -56.1035
   vertex -5.57852 179.487 -56.1275
  endloop
 endfacet
 facet normal -0.169747 0.0215007 0.985253
  outer loop
   vertex -6.33345 179.347 -56.2545
   vertex -5.99782 179.114 -56.1916
   vertex -5.57852 179.487 -56.1275
  endloop
 endfacet
 facet normal -0.169733 0.0214821 0.985256
  outer loop
   vertex -6.33345 179.347 -56.2545
   vertex -6.73288 179.149 -56.319
   vertex -6.54776 179.117 -56.2864
  endloop
 endfacet
 facet normal -0.169745 0.0215002 0.985253
  outer loop
   vertex -7.02772 179.584 -56.3793
   vertex -7.62071 179.839 -56.487
   vertex -7.45549 179.446 -56.45
  endloop
 endfacet
 facet normal -0.169736 0.0214856 0.985255
  outer loop
   vertex -7.6285 179.565 -56.4824
   vertex -7.62071 179.839 -56.487
   vertex -7.77955 179.69 -56.5111
  endloop
 endfacet
 facet normal -0.169748 0.0214955 0.985253
  outer loop
   vertex -8.04329 179.982 -56.5629
   vertex -7.62071 179.839 -56.487
   vertex -8.0033 180.325 -56.5635
  endloop
 endfacet
 facet normal -0.169755 0.0215067 0.985252
  outer loop
   vertex -4.41322 182.742 -55.9977
   vertex -4.54777 182.295 -56.0112
   vertex -4.31753 182.59 -55.9779
  endloop
 endfacet
 facet normal -0.169745 0.0215014 0.985253
  outer loop
   vertex -5.13043 181.334 -56.0906
   vertex -5.92767 181.675 -56.2354
   vertex -5.79125 180.975 -56.1966
  endloop
 endfacet
 facet normal -0.169735 0.0215101 0.985255
  outer loop
   vertex -4.54777 182.295 -56.0112
   vertex -4.08641 182.065 -55.9267
   vertex -4.1493 182.252 -55.9416
  endloop
 endfacet
 facet normal -0.169746 0.0214853 0.985254
  outer loop
   vertex -8.19982 182.56 -56.6462
   vertex -8.29342 182.386 -56.6585
   vertex -8.11834 182.257 -56.6255
  endloop
 endfacet
 facet normal -0.169747 0.0215065 0.985253
  outer loop
   vertex -8.37031 182.21 -56.6679
   vertex -8.42794 182.031 -56.6739
   vertex -8.11834 182.257 -56.6255
  endloop
 endfacet
 facet normal -0.169748 0.0215015 0.985253
  outer loop
   vertex -5.80956 183.274 -56.2499
   vertex -5.49949 183.567 -56.2029
   vertex -5.69424 183.625 -56.2377
  endloop
 endfacet
 facet normal -0.169754 0.0215084 0.985252
  outer loop
   vertex -5.80956 183.274 -56.2499
   vertex -5.32 183.489 -56.1703
   vertex -5.49949 183.567 -56.2029
  endloop
 endfacet
 facet normal -0.169746 0.0214862 0.985254
  outer loop
   vertex -6.44778 183.448 -56.3637
   vertex -6.69154 183.646 -56.41
   vertex -6.87179 183.605 -56.4402
  endloop
 endfacet
 facet normal -0.169755 0.0214999 0.985252
  outer loop
   vertex -6.87179 183.605 -56.4402
   vertex -7.05352 183.544 -56.4701
   vertex -7.17659 183.089 -56.4814
  endloop
 endfacet
 facet normal -0.169734 0.0214916 0.985255
  outer loop
   vertex -6.49335 183.679 -56.3766
   vertex -6.44778 183.448 -56.3637
   vertex -6.29474 183.697 -56.3427
  endloop
 endfacet
 facet normal -0.169761 0.0215015 0.985251
  outer loop
   vertex -7.05352 183.544 -56.4701
   vertex -7.22532 183.465 -56.498
   vertex -7.17659 183.089 -56.4814
  endloop
 endfacet
 facet normal -0.169752 0.0215122 0.985252
  outer loop
   vertex -7.17659 183.089 -56.4814
   vertex -7.7112 183.149 -56.5748
   vertex -7.83785 182.717 -56.5872
  endloop
 endfacet
 facet normal -0.169747 0.0214962 0.985253
  outer loop
   vertex -5.92767 181.675 -56.2354
   vertex -5.13043 181.334 -56.0906
   vertex -5.35015 182.148 -56.1462
  endloop
 endfacet
 facet normal -0.169753 0.0214961 0.985252
  outer loop
   vertex -5.32 183.489 -56.1703
   vertex -5.07727 182.961 -56.1169
   vertex -5.16195 183.412 -56.1413
  endloop
 endfacet
 facet normal -0.169744 0.0214818 0.985254
  outer loop
   vertex -7.9878 182.87 -56.6164
   vertex -8.09524 182.728 -56.6318
   vertex -7.83785 182.717 -56.5872
  endloop
 endfacet
 facet normal -0.169749 0.021496 0.985253
  outer loop
   vertex -5.07727 182.961 -56.1169
   vertex -4.54777 182.295 -56.0112
   vertex -4.53434 182.897 -56.022
  endloop
 endfacet
endsolid
